<svg width="185" height="100" viewBox="0 0 185 100" fill="none" xmlns="http://www.w3.org/2000/svg">
<path fill-rule="evenodd" clip-rule="evenodd" d="M185 0H0V100H185V0ZM89.1875 51.48V49.08C89.1875 45.8533 88.3208 43.5333 86.5875 42.12C84.8542 40.7067 82.2275 40 78.7075 40C74.9208 40 72.1608 40.8 70.4275 42.4C68.7208 43.9733 67.8675 46.7467 67.8675 50.72C67.8675 54.5867 68.7342 57.3067 70.4675 58.88C72.2008 60.4267 74.9608 61.2 78.7475 61.2C82.1608 61.2 84.7075 60.6133 86.3875 59.44C88.0675 58.2667 89.0008 56.2533 89.1875 53.4H82.4675C82.2808 55.1867 81.0408 56.08 78.7475 56.08C77.3608 56.08 76.3208 55.7333 75.6275 55.04C74.9608 54.3467 74.6142 53.1867 74.5875 51.56V51.48H89.1875ZM74.5875 49.4V49.08C74.6408 47.64 75.0142 46.6267 75.7075 46.04C76.4008 45.4267 77.3875 45.12 78.6675 45.12C79.9208 45.12 80.8542 45.4533 81.4675 46.12C82.1075 46.76 82.4275 47.8533 82.4275 49.4H74.5875ZM43.48 50L49.04 55.8L54.6 50V60.6H61.08V40.6H55.72L49.04 48.16L42.36 40.6H37V60.6H43.48V50ZM94.3078 40.6H113.828V45.72H107.428V60.6H100.708V45.72H94.3078V40.6ZM127.142 56.48C127.942 59.6267 130.089 61.2 133.582 61.2C136.302 61.2 138.302 60.44 139.582 58.92C140.862 57.3733 141.502 54.6267 141.502 50.68C141.502 46.7067 140.862 43.9333 139.582 42.36C138.302 40.7867 136.302 40 133.582 40C131.876 40 130.462 40.4133 129.342 41.24C128.249 42.0667 127.516 43.2267 127.142 44.72H126.462V40.6H119.742V67.8H126.462V56.48H127.142ZM126.462 48.72C126.542 46.32 127.876 45.12 130.462 45.12C132.116 45.12 133.249 45.4933 133.862 46.24C134.502 46.96 134.822 48.44 134.822 50.68C134.822 52.8667 134.516 54.32 133.902 55.04C133.289 55.7333 132.142 56.08 130.462 56.08C127.796 56.08 126.462 54.8133 126.462 52.28V48.72Z" fill="white"/>
</svg>
