<svg width="49" height="47" viewBox="0 0 49 47" fill="none" xmlns="http://www.w3.org/2000/svg">
<path d="M1.50936 29.4924C1.90967 29.4924 2.29359 29.6669 2.57665 29.9776C2.85971 30.2883 3.01873 30.7097 3.01873 31.1491V39.4326C3.01873 40.3114 3.33677 41.1542 3.90289 41.7756C4.46902 42.397 5.23684 42.7461 6.03746 42.7461H42.2622C43.0628 42.7461 43.8306 42.397 44.3968 41.7756C44.9629 41.1542 45.2809 40.3114 45.2809 39.4326V31.1491C45.2809 30.7097 45.44 30.2883 45.723 29.9776C46.0061 29.6669 46.39 29.4924 46.7903 29.4924C47.1906 29.4924 47.5745 29.6669 47.8576 29.9776C48.1406 30.2883 48.2997 30.7097 48.2997 31.1491V39.4326C48.2997 41.1902 47.6636 42.8757 46.5313 44.1185C45.3991 45.3613 43.8634 46.0595 42.2622 46.0595H6.03746C4.43622 46.0595 2.90057 45.3613 1.76833 44.1185C0.636088 42.8757 0 41.1902 0 39.4326V31.1491C0 30.7097 0.159022 30.2883 0.442083 29.9776C0.725143 29.6669 1.10906 29.4924 1.50936 29.4924Z" fill="#CCCCCC"/>
<path d="M23.0813 0.486705C23.2216 0.332422 23.3881 0.210015 23.5715 0.126495C23.7549 0.0429757 23.9514 -1.52588e-05 24.15 -1.52588e-05C24.3485 -1.52588e-05 24.5451 0.0429757 24.7285 0.126495C24.9118 0.210015 25.0784 0.332422 25.2186 0.486705L34.2748 10.427C34.5582 10.738 34.7174 11.16 34.7174 11.5999C34.7174 12.0399 34.5582 12.4618 34.2748 12.7729C33.9914 13.0839 33.607 13.2587 33.2062 13.2587C32.8054 13.2587 32.421 13.0839 32.1375 12.7729L25.6593 5.65895V34.7938C25.6593 35.2332 25.5003 35.6546 25.2173 35.9653C24.9342 36.276 24.5503 36.4506 24.15 36.4506C23.7497 36.4506 23.3658 36.276 23.0827 35.9653C22.7996 35.6546 22.6406 35.2332 22.6406 34.7938V5.65895L16.1624 12.7729C16.0221 12.9269 15.8555 13.0491 15.6721 13.1324C15.4888 13.2158 15.2923 13.2587 15.0938 13.2587C14.8953 13.2587 14.6988 13.2158 14.5155 13.1324C14.3321 13.0491 14.1655 12.9269 14.0252 12.7729C13.8848 12.6188 13.7735 12.436 13.6976 12.2347C13.6216 12.0335 13.5825 11.8177 13.5825 11.5999C13.5825 11.3821 13.6216 11.1664 13.6976 10.9651C13.7735 10.7639 13.8848 10.581 14.0252 10.427L23.0813 0.486705Z" fill="#CCCCCC"/>
</svg>
