<svg width="265" height="139" viewBox="0 0 265 139" fill="none" xmlns="http://www.w3.org/2000/svg">
<path fill-rule="evenodd" clip-rule="evenodd" d="M264.708 0H0V139H264.708V0ZM127.614 71.5571V68.2211C127.614 63.7361 126.374 60.5113 123.894 58.5467C121.414 56.5822 117.656 55.5999 112.619 55.5999C107.201 55.5999 103.252 56.7119 100.772 58.9359C98.3295 61.1229 97.1085 64.9778 97.1085 70.5007C97.1085 75.8754 98.3486 79.6562 100.829 81.8431C103.309 83.993 107.258 85.0679 112.676 85.0679C117.56 85.0679 121.204 84.2525 123.608 82.6215C126.012 80.9906 127.347 78.1921 127.614 74.2259H117.999C117.732 76.7094 115.958 77.9511 112.676 77.9511C110.692 77.9511 109.204 77.4693 108.212 76.5055C107.258 75.5418 106.762 73.9294 106.724 71.6683V71.5571H127.614ZM106.724 68.6659V68.2211C106.8 66.2195 107.334 64.811 108.326 63.9955C109.318 63.143 110.73 62.7167 112.562 62.7167C114.355 62.7167 115.691 63.1801 116.568 64.1067C117.484 64.9963 117.942 66.5161 117.942 68.6659H106.724ZM62.2136 69.4999L70.1691 77.5619L78.1247 69.4999V84.2339H87.3966V56.4339H79.7272L70.1691 66.9423L60.611 56.4339H52.9416V84.2339H62.2136V69.4999ZM134.941 56.4339H162.871V63.5507H153.714V84.2339H144.098V63.5507H134.941V56.4339ZM181.922 78.5071C183.067 82.881 186.138 85.0679 191.137 85.0679C195.029 85.0679 197.89 84.0115 199.722 81.8987C201.553 79.7489 202.469 75.931 202.469 70.4451C202.469 64.9222 201.553 61.0673 199.722 58.8803C197.89 56.6934 195.029 55.5999 191.137 55.5999C188.695 55.5999 186.672 56.1745 185.07 57.3235C183.505 58.4726 182.456 60.085 181.922 62.1607H180.949V56.4339H171.334V94.2419H180.949V78.5071H181.922ZM180.949 67.7207C181.064 64.3847 182.971 62.7167 186.672 62.7167C189.038 62.7167 190.66 63.2357 191.537 64.2735C192.453 65.2743 192.911 67.3315 192.911 70.4451C192.911 73.4846 192.472 75.5047 191.595 76.5055C190.717 77.4693 189.076 77.9511 186.672 77.9511C182.857 77.9511 180.949 76.1905 180.949 72.6691V67.7207Z" fill="white"/>
</svg>
